<svg id="visual" viewBox="0 0 900 600" width="900" height="600" xmlns="http://www.w3.org/2000/svg" xmlns:xlink="http://www.w3.org/1999/xlink" version="1.1"><rect x="0" y="0" width="900" height="600" fill="#5a5a55"></rect><path d="M0 288L8.8 295.2C17.7 302.3 35.3 316.7 53 328.2C70.7 339.7 88.3 348.3 106 331.7C123.7 315 141.3 273 159 273.5C176.7 274 194.3 317 212 333.8C229.7 350.7 247.3 341.3 265 333.8C282.7 326.3 300.3 320.7 318 355C335.7 389.3 353.3 463.7 371 445.2C388.7 426.7 406.3 315.3 423.8 294C441.3 272.7 458.7 341.3 476.2 353.2C493.7 365 511.3 320 529 293C546.7 266 564.3 257 582 277.8C599.7 298.7 617.3 349.3 635 401.5C652.7 453.7 670.3 507.3 688 479.3C705.7 451.3 723.3 341.7 741 295C758.7 248.3 776.3 264.7 794 311.8C811.7 359 829.3 437 847 467.2C864.7 497.3 882.3 479.7 891.2 470.8L900 462L900 601L891.2 601C882.3 601 864.7 601 847 601C829.3 601 811.7 601 794 601C776.3 601 758.7 601 741 601C723.3 601 705.7 601 688 601C670.3 601 652.7 601 635 601C617.3 601 599.7 601 582 601C564.3 601 546.7 601 529 601C511.3 601 493.7 601 476.2 601C458.7 601 441.3 601 423.8 601C406.3 601 388.7 601 371 601C353.3 601 335.7 601 318 601C300.3 601 282.7 601 265 601C247.3 601 229.7 601 212 601C194.3 601 176.7 601 159 601C141.3 601 123.7 601 106 601C88.3 601 70.7 601 53 601C35.3 601 17.7 601 8.8 601L0 601Z" fill="#1d1d1f" stroke-linecap="round" stroke-linejoin="miter"></path></svg>