<svg width="1920" height="1080" viewBox="0 0 1920 1080" xmlns="http://www.w3.org/2000/svg"><rect width="1920" height="1080" fill="#292929"/><path d="M 0,1080 C 0,1080 0,360 0,360 C 129.17857142857144,314.42857142857144 258.3571428571429,268.85714285714283 429,301 C 599.6428571428571,333.14285714285717 811.75,442.99999999999994 974,456 C 1136.25,469.00000000000006 1248.6428571428573,385.14285714285717 1398,353 C 1547.3571428571427,320.85714285714283 1733.6785714285713,340.42857142857144 1920,360 C 1920,360 1920,1080 1920,1080 Z" fill="#cf87f2" opacity="0.19999999999999998"/><path d="M 0,1080 C 0,1080 0,720 0,720 C 148.85714285714283,763.6428571428571 297.71428571428567,807.2857142857143 449,807 C 600.2857142857143,806.7142857142857 753.9999999999998,762.5 936,740 C 1118.0000000000002,717.5 1328.2857142857144,716.7142857142858 1497,717 C 1665.7142857142856,717.2857142857142 1792.8571428571427,718.6428571428571 1920,720 C 1920,720 1920,1080 1920,1080 Z" fill="#cf87f2" opacity="0.39999999999999997"/></svg>