<svg width="1920" height="1080" viewBox="0 0 1920 1080" xmlns="http://www.w3.org/2000/svg"><rect width="1920" height="1080" fill="#292929"/><path d="M 0,1080 C 0,1080 0,360 0,360 C 115.70000000000002,360.1846153846154 231.40000000000003,360.3692307692308 326,394 C 420.59999999999997,427.6307692307692 494.0999999999999,494.7076923076923 615,494 C 735.9000000000001,493.2923076923077 904.2,424.8 1043,372 C 1181.8,319.2 1291.1,282.0923076923077 1368,277 C 1444.9,271.9076923076923 1489.4,298.83076923076925 1576,318 C 1662.6,337.16923076923075 1791.3,348.5846153846154 1920,360 C 1920,360 1920,1080 1920,1080 Z" fill="#5f5d5d" opacity="0.19999999999999998"/><path d="M 0,1080 C 0,1080 0,720 0,720 C 159.74358974358975,798.3538461538461 319.4871794871795,876.7076923076922 409,844 C 498.5128205128205,811.2923076923078 517.7948717948718,667.523076923077 607,649 C 696.2051282051282,630.476923076923 855.3333333333335,737.1999999999999 962,773 C 1068.6666666666665,808.8000000000001 1122.871794871795,773.6769230769231 1211,767 C 1299.128205128205,760.3230769230769 1421.1794871794873,782.0923076923077 1545,779 C 1668.8205128205127,775.9076923076923 1794.4102564102564,747.9538461538461 1920,720 C 1920,720 1920,1080 1920,1080 Z" fill="#5f5d5d" opacity="0.39999999999999997"/></svg>