<svg width="1920" height="1080" viewBox="0 0 1920 1080" xmlns="http://www.w3.org/2000/svg"><rect width="1920" height="1080" fill="#292929"/><path d="M 0,1080 C 0,1080 0,154 0,154 C 41.32652659236899,152.22389516631625 82.65305318473798,150.44779033263254 126,165 C 169.34694681526202,179.55220966736746 214.71431385341697,210.43273383578617 259,199 C 303.28568614658303,187.56726616421383 346.4896914015942,133.82127432422286 384,134 C 421.5103085984058,134.17872567577714 453.3269205402064,188.28216886732238 490,207 C 526.6730794597936,225.71783113267762 568.2026264375803,209.05005020648764 619,190 C 669.7973735624197,170.94994979351236 729.8625737094724,149.51763030672714 779,138 C 828.1374262905276,126.48236969327284 866.3470787245301,124.87942856660376 906,137 C 945.6529212754699,149.12057143339624 986.749111392407,174.96465542685783 1029,177 C 1071.250888607593,179.03534457314217 1114.6564757058425,157.26194972596494 1155,139 C 1195.3435242941575,120.73805027403507 1232.6249857842229,105.98754566928253 1275,101 C 1317.3750142157771,96.01245433071747 1364.8435811572663,100.78786759690496 1408,120 C 1451.1564188427337,139.21213240309504 1490.000689586712,172.86098394309764 1539,182 C 1587.999310413288,191.13901605690236 1647.1536604958853,175.7681966307045 1686,161 C 1724.8463395041147,146.2318033692955 1743.384668429747,132.06622953408444 1779,131 C 1814.615331570253,129.93377046591556 1867.3076657851266,141.9668852329578 1920,154 C 1920,154 1920,1080 1920,1080 Z" fill="#cf87f2" opacity="0.08571428571428572"/><path d="M 0,1080 C 0,1080 0,308 0,308 C 55.939520545272444,312.2725663910684 111.87904109054489,316.5451327821368 150,322 C 188.1209589094551,327.4548672178632 208.42335618309295,334.0920352625212 246,333 C 283.57664381690705,331.9079647374788 338.42753417708343,323.08672616777835 382,325 C 425.57246582291657,326.91327383222165 457.8665071085733,339.5610600663654 503,337 C 548.1334928914267,334.4389399336346 606.1064373886237,316.66903356676005 647,320 C 687.8935626113763,323.33096643323995 711.707743336932,347.7628056665943 754,355 C 796.292256663068,362.2371943334057 857.0625892636482,352.2797437668626 900,326 C 942.9374107363518,299.7202562331374 968.0418996084757,257.1182192659552 1005,263 C 1041.9581003915243,268.8817807340448 1090.769812302449,323.2473791693167 1141,345 C 1191.230187697551,366.7526208306833 1242.8788511817272,355.89226405677823 1290,347 C 1337.1211488182728,338.10773594322177 1379.7147829706423,331.18356460357046 1413,326 C 1446.2852170293577,320.81643539642954 1470.2620169357042,317.37347752893993 1512,298 C 1553.7379830642958,278.62652247106007 1613.237149286541,243.32252528067 1668,257 C 1722.762850713459,270.67747471933 1772.789385918131,333.33642134838 1814,350 C 1855.210614081869,366.66357865162 1887.6053070409343,337.33178932581 1920,308 C 1920,308 1920,1080 1920,1080 Z" fill="#cf87f2" opacity="0.17142857142857143"/><path d="M 0,1080 C 0,1080 0,462 0,462 C 38.77685726693325,458.8107371095567 77.5537145338665,455.6214742191135 114,465 C 150.4462854661335,474.3785257808865 184.56199913146725,496.3248402331027 234,489 C 283.43800086853275,481.6751597668973 348.1982889402645,445.0791648484757 393,424 C 437.8017110597355,402.9208351515243 462.6448451074747,397.3585003729944 498,408 C 533.3551548925253,418.6414996270056 579.222330629837,445.4868336595465 622,452 C 664.777669370163,458.5131663404535 704.4658323731778,444.69416498881935 750,439 C 795.5341676268222,433.30583501118065 846.9143398774515,435.7365063851763 889,434 C 931.0856601225485,432.2634936148237 963.876808117016,426.3598094704757 1009,423 C 1054.123191882984,419.6401905295243 1111.5784276544848,418.8242557329209 1152,431 C 1192.4215723455152,443.1757442670791 1215.8094812650456,468.34316759784053 1262,479 C 1308.1905187349544,489.65683240215947 1377.183647285333,485.8030738757168 1420,481 C 1462.816352714667,476.1969261242832 1479.4559295936222,470.4445368992925 1517,474 C 1554.5440704063778,477.5554631007075 1612.992634340179,490.4187785271136 1661,498 C 1709.007365659821,505.5812214728864 1746.573533045663,507.8803489922532 1788,501 C 1829.426466954337,494.1196510077468 1874.7132334771686,478.0598255038734 1920,462 C 1920,462 1920,1080 1920,1080 Z" fill="#cf87f2" opacity="0.2571428571428571"/><path d="M 0,1080 C 0,1080 0,617 0,617 C 32.589190422954445,634.1477866585974 65.17838084590889,651.2955733171949 104,651 C 142.8216191540911,650.7044266828051 187.87566703931884,632.9654933898177 232,624 C 276.12433296068116,615.0345066101823 319.31895099681583,614.8424531235346 367,614 C 414.68104900318417,613.1575468764654 466.8485289734175,611.6646941160443 510,600 C 553.1514710265825,588.3353058839557 587.2869331095138,566.4987704122885 629,580 C 670.7130668904862,593.5012295877115 720.003738588527,642.3402242348022 760,636 C 799.996261411473,629.6597757651978 830.6981125363782,568.1403326485024 876,574 C 921.3018874636218,579.8596673514976 981.2038112659607,653.0984451711884 1029,670 C 1076.7961887340393,686.9015548288116 1112.4866423997792,647.4658866667443 1149,624 C 1185.5133576002208,600.5341133332557 1222.849619134922,593.0380081618346 1265,606 C 1307.150380865078,618.9619918381654 1354.1148810605318,652.3820806859173 1403,648 C 1451.8851189394682,643.6179193140827 1502.6908566229502,601.4336690944963 1548,607 C 1593.3091433770498,612.5663309055037 1633.1216924476673,665.8832429360971 1669,659 C 1704.8783075523327,652.1167570639029 1736.8223735863808,585.0333591611151 1778,568 C 1819.1776264136192,550.9666408388849 1869.5888132068096,583.9833204194424 1920,617 C 1920,617 1920,1080 1920,1080 Z" fill="#cf87f2" opacity="0.34285714285714286"/><path d="M 0,1080 C 0,1080 0,771 0,771 C 57.504386510312514,773.5784870506238 115.00877302062503,776.1569741012478 151,768 C 186.99122697937497,759.8430258987522 201.46929442781237,740.9505906456329 238,737 C 274.5307055721876,733.0494093543671 333.1140492681254,744.0406633162206 380,759 C 426.8859507318746,773.9593366837794 462.0745084996862,792.8867560894848 510,794 C 557.9254915003138,795.1132439105152 618.5879167331302,778.41231232584 656,773 C 693.4120832668698,767.58768767416 707.5738245677932,773.4639946071554 745,759 C 782.4261754322068,744.5360053928446 843.1167849956972,709.731709245538 892,724 C 940.8832150043028,738.268290754462 977.9590354494178,801.6091684106924 1018,825 C 1058.0409645505822,848.3908315893076 1101.0470732066317,831.8316171116927 1147,828 C 1192.9529267933683,824.1683828883073 1241.8526717240559,833.0643631425369 1291,818 C 1340.1473282759441,802.9356368574631 1389.5422398971452,763.91093031816 1431,746 C 1472.4577601028548,728.08906968184 1505.978368687363,731.2919155848231 1546,745 C 1586.021631312637,758.7080844151769 1632.5442853534025,782.9214073425477 1672,801 C 1711.4557146465975,819.0785926574523 1743.8444898990276,831.0224550449864 1784,825 C 1824.1555101009724,818.9775449550136 1872.0777550504863,794.9887724775068 1920,771 C 1920,771 1920,1080 1920,1080 Z" fill="#cf87f2" opacity="0.4285714285714286"/><path d="M 0,1080 C 0,1080 0,925 0,925 C 27.13615067468747,939.316226761443 54.27230134937494,953.6324535228861 105,944 C 155.72769865062506,934.3675464771139 230.04694527718772,900.7864126698985 276,889 C 321.9530547228123,877.2135873301015 339.5399175418743,887.2218957975201 380,894 C 420.4600824581257,900.7781042024799 483.79338455531513,904.3260041400212 533,906 C 582.2066154446849,907.6739958599788 617.2865442368653,907.4740876423946 652,898 C 686.7134557631347,888.5259123576054 721.0604384972238,869.7776452904005 760,887 C 798.9395615027762,904.2223547095995 842.4717017742394,957.4153311960034 888,971 C 933.5282982257606,984.5846688039966 981.0527544058184,958.561029925586 1030,964 C 1078.9472455941816,969.438970074414 1129.317280602487,1006.3405491016526 1173,983 C 1216.682719397513,959.6594508983474 1253.6781231842338,876.076773667803 1296,870 C 1338.3218768157662,863.923226332197 1385.9702266605782,935.3523562271357 1420,951 C 1454.0297733394218,966.6476437728643 1474.4409701734533,926.5138014236543 1513,920 C 1551.5590298265467,913.4861985763457 1608.265892645609,940.5924380782469 1660,934 C 1711.734107354391,927.4075619217531 1758.4954592441115,887.116446263358 1801,880 C 1843.5045407558885,872.883553736642 1881.7522703779441,898.9417768683211 1920,925 C 1920,925 1920,1080 1920,1080 Z" fill="#cf87f2" opacity="0.5142857142857142"/><path d="M 0,1080 C 0,1080 0,1079 0,1079 C 37.27570728483563,1059.5517647942097 74.55141456967127,1040.1035295884192 115,1039 C 155.44858543032873,1037.8964704115808 199.0700490061506,1055.1376464405332 243,1068 C 286.9299509938494,1080.8623535594668 331.1683894057261,1089.3458846494482 377,1083 C 422.8316105942739,1076.6541153505518 470.2563933709454,1055.4788149616747 518,1062 C 565.7436066290546,1068.5211850383253 613.8060371104924,1102.7388555038528 649,1114 C 684.1939628895076,1125.2611444961472 706.519458187085,1113.5657630229139 746,1113 C 785.480541812915,1112.4342369770861 842.1161301411677,1122.9980924044914 891,1103 C 939.8838698588323,1083.0019075955086 981.0160212482454,1032.4418673591197 1019,1031 C 1056.9839787517546,1029.5581326408803 1091.819784865851,1077.2344381590299 1129,1096 C 1166.180215134149,1114.7655618409701 1205.7048392883505,1104.6203800047601 1261,1085 C 1316.2951607116495,1065.3796199952399 1387.3608579807458,1036.284041821929 1429,1054 C 1470.6391420192542,1071.715958178071 1482.851728788666,1136.2434527075243 1521,1134 C 1559.148271211334,1131.7565472924757 1623.2322268645898,1062.7421473479742 1672,1050 C 1720.7677731354102,1037.2578526520258 1754.219363752974,1080.7879579005787 1793,1095 C 1831.780636247026,1109.2120420994213 1875.890318123513,1094.1060210497108 1920,1079 C 1920,1079 1920,1080 1920,1080 Z" fill="#cf87f2" opacity="0.6"/></svg>